<svg width="40" height="40" viewBox="0 0 40 40" fill="none" xmlns="http://www.w3.org/2000/svg">
<path d="M13.333 20.334H24.9997" stroke="white" stroke-width="1.5" stroke-miterlimit="10" stroke-linecap="round" stroke-linejoin="round"/>
<path d="M13.3335 27H20.6335" stroke="white" stroke-width="1.5" stroke-miterlimit="10" stroke-linecap="round" stroke-linejoin="round"/>
<path d="M16.6663 10.0007H23.333C26.6663 10.0007 26.6663 8.33398 26.6663 6.66732C26.6663 3.33398 24.9997 3.33398 23.333 3.33398H16.6663C14.9997 3.33398 13.333 3.33398 13.333 6.66732C13.333 10.0007 14.9997 10.0007 16.6663 10.0007Z" stroke="white" stroke-width="1.5" stroke-miterlimit="10" stroke-linecap="round" stroke-linejoin="round"/>
<path d="M26.6667 6.69922C32.2167 6.99922 35 9.04922 35 16.6659V26.6659C35 33.3326 33.3333 36.6659 25 36.6659H15C6.66667 36.6659 5 33.3326 5 26.6659V16.6659C5 9.06589 7.78333 6.99922 13.3333 6.69922" stroke="white" stroke-width="1.5" stroke-miterlimit="10" stroke-linecap="round" stroke-linejoin="round"/>
</svg>
