<svg width="40" height="40" viewBox="0 0 40 40" fill="none" xmlns="http://www.w3.org/2000/svg">
<path d="M31.6663 26.6667V10.8333C31.6663 9 30.1663 7.5 28.333 7.5H20.833" stroke="white" stroke-width="1.5" stroke-linecap="round" stroke-linejoin="round"/>
<path d="M25 3.33398L20 7.50065L25 11.6673" stroke="white" stroke-width="1.5" stroke-linecap="round" stroke-linejoin="round"/>
<path d="M8.3335 15V26.6667" stroke="white" stroke-width="1.5" stroke-linecap="round" stroke-linejoin="round"/>
<path d="M8.74967 14.1673C11.7412 14.1673 14.1663 11.7422 14.1663 8.75065C14.1663 5.75911 11.7412 3.33398 8.74967 3.33398C5.75813 3.33398 3.33301 5.75911 3.33301 8.75065C3.33301 11.7422 5.75813 14.1673 8.74967 14.1673Z" stroke="white" stroke-width="1.5" stroke-linecap="round" stroke-linejoin="round"/>
<path d="M8.33301 36.666C11.0944 36.666 13.333 34.4274 13.333 31.666C13.333 28.9046 11.0944 26.666 8.33301 26.666C5.57158 26.666 3.33301 28.9046 3.33301 31.666C3.33301 34.4274 5.57158 36.666 8.33301 36.666Z" stroke="white" stroke-width="1.5" stroke-linecap="round" stroke-linejoin="round"/>
<path d="M31.667 36.666C34.4284 36.666 36.667 34.4274 36.667 31.666C36.667 28.9046 34.4284 26.666 31.667 26.666C28.9056 26.666 26.667 28.9046 26.667 31.666C26.667 34.4274 28.9056 36.666 31.667 36.666Z" stroke="white" stroke-width="1.5" stroke-linecap="round" stroke-linejoin="round"/>
</svg>
