<svg width="40" height="40" viewBox="0 0 40 40" fill="none" xmlns="http://www.w3.org/2000/svg">
<rect width="40" height="40" rx="6" fill="#EE4242"/>
<path d="M28.55 15.9732C28.325 15.1607 27.7625 14.5804 26.975 14.3482C25.625 14 19.8875 14 19.8875 14C19.8875 14 14.2625 14 12.8 14.3482C12.0125 14.5804 11.45 15.1607 11.225 15.9732C11 17.4821 11 20.5 11 20.5C11 20.5 11 23.5179 11.3375 25.0268C11.5625 25.8393 12.125 26.4196 12.9125 26.6518C14.2625 27 20 27 20 27C20 27 25.625 27 27.0875 26.6518C27.875 26.4196 28.4375 25.8393 28.6625 25.0268C29 23.5179 29 20.5 29 20.5C29 20.5 29 17.4821 28.55 15.9732ZM18.2 23.2857V17.7143L22.925 20.5L18.2 23.2857Z" fill="white"/>
</svg>
