<svg width="33" height="32" viewBox="0 0 33 32" fill="none" xmlns="http://www.w3.org/2000/svg">
<circle cx="16.5625" cy="16" r="16" fill="white"/>
<path d="M12.4358 22V20.912L16.9958 16.512C17.4011 16.128 17.6998 15.792 17.8918 15.504C18.0944 15.2053 18.2278 14.9333 18.2918 14.688C18.3664 14.432 18.4038 14.1867 18.4038 13.952C18.4038 13.376 18.2011 12.9227 17.7958 12.592C17.3904 12.2613 16.7984 12.096 16.0198 12.096C15.4224 12.096 14.8838 12.1973 14.4038 12.4C13.9238 12.592 13.5078 12.896 13.1558 13.312L12.0678 12.368C12.4944 11.824 13.0651 11.408 13.7798 11.12C14.5051 10.8213 15.2998 10.672 16.1638 10.672C16.9424 10.672 17.6198 10.8 18.1958 11.056C18.7718 11.3013 19.2144 11.6587 19.5238 12.128C19.8438 12.5973 20.0038 13.152 20.0038 13.792C20.0038 14.1547 19.9558 14.512 19.8598 14.864C19.7638 15.216 19.5824 15.5893 19.3158 15.984C19.0491 16.3787 18.6651 16.8213 18.1638 17.312L14.0998 21.232L13.7158 20.608H20.4838V22H12.4358Z" fill="#EE4242"/>
</svg>
