<svg width="33" height="32" viewBox="0 0 33 32" fill="none" xmlns="http://www.w3.org/2000/svg">
<circle cx="16.375" cy="16" r="16" fill="white"/>
<path d="M16.2389 22.128C15.4495 22.128 14.6815 22.0053 13.9349 21.76C13.1989 21.5147 12.5962 21.184 12.1269 20.768L12.8629 19.504C13.2362 19.856 13.7215 20.144 14.3189 20.368C14.9162 20.592 15.5562 20.704 16.2389 20.704C17.0709 20.704 17.7162 20.528 18.1749 20.176C18.6442 19.8133 18.8789 19.328 18.8789 18.72C18.8789 18.1333 18.6549 17.664 18.2069 17.312C17.7695 16.9493 17.0709 16.768 16.1109 16.768H15.2149V15.648L18.5429 11.552L18.7669 12.192H12.6389V10.8H20.0309V11.888L16.7189 15.968L15.8869 15.472H16.4149C17.7695 15.472 18.7829 15.776 19.4549 16.384C20.1375 16.992 20.4789 17.7653 20.4789 18.704C20.4789 19.3333 20.3242 19.9093 20.0149 20.432C19.7055 20.9547 19.2362 21.3707 18.6069 21.68C17.9882 21.9787 17.1989 22.128 16.2389 22.128Z" fill="#EE4242"/>
</svg>
