<svg width="81" height="80" viewBox="0 0 81 80" fill="none" xmlns="http://www.w3.org/2000/svg">
<path d="M73.8337 33.3327V49.9994C73.8337 66.666 67.167 73.3327 50.5003 73.3327H30.5003C13.8337 73.3327 7.16699 66.666 7.16699 49.9994V29.9994C7.16699 13.3327 13.8337 6.66602 30.5003 6.66602H47.167" stroke="#F58E8E" stroke-width="2" stroke-linecap="round" stroke-linejoin="round"/>
<path d="M73.8337 33.3327H60.5003C50.5003 33.3327 47.167 29.9993 47.167 19.9993V6.66602L73.8337 33.3327Z" stroke="#F58E8E" stroke-width="2" stroke-linecap="round" stroke-linejoin="round"/>
<path d="M22.5668 52.4325C21.4668 48.9992 22.7668 44.7659 26.3334 43.5992C28.2334 42.9992 30.5668 43.4992 31.8668 45.3325C33.1001 43.4325 35.5334 42.9992 37.4001 43.5992C41.0001 44.7659 42.2668 48.9992 41.2001 52.4325C39.5001 57.8659 33.5334 60.6992 31.8668 60.6992C30.2334 60.6659 24.3334 57.8992 22.5668 52.4325Z" stroke="white" stroke-width="2" stroke-linecap="round" stroke-linejoin="round"/>
</svg>
