<svg width="81" height="80" viewBox="0 0 81 80" fill="none" xmlns="http://www.w3.org/2000/svg">
<path opacity="0.4" d="M70.7669 28.5995V51.3993C70.7669 55.1327 68.7669 58.5995 65.5335 60.4995L45.7335 71.9328C42.5002 73.7995 38.5002 73.7995 35.2335 71.9328L15.4335 60.4995C12.2002 58.6328 10.2002 55.166 10.2002 51.3993V28.5995C10.2002 24.8661 12.2002 21.3993 15.4335 19.4993L35.2335 8.06602C38.4669 6.19935 42.4669 6.19935 45.7335 8.06602L65.5335 19.4993C68.7669 21.3993 70.7669 24.8328 70.7669 28.5995Z" stroke="white" stroke-width="2" stroke-linecap="round" stroke-linejoin="round"/>
<path d="M40.5001 36.6661C44.7895 36.6661 48.2667 33.1887 48.2667 28.8993C48.2667 24.6099 44.7895 21.1328 40.5001 21.1328C36.2107 21.1328 32.7334 24.6099 32.7334 28.8993C32.7334 33.1887 36.2107 36.6661 40.5001 36.6661Z" stroke="white" stroke-width="2" stroke-linecap="round" stroke-linejoin="round"/>
<path d="M53.8337 55.5325C53.8337 49.5325 47.867 44.666 40.5003 44.666C33.1337 44.666 27.167 49.5325 27.167 55.5325" stroke="white" stroke-width="2" stroke-linecap="round" stroke-linejoin="round"/>
</svg>
